<svg width="42" height="42" viewBox="0 0 42 42" fill="none" xmlns="http://www.w3.org/2000/svg">
<path d="M15.7508 0.730548C16.2291 1.31364 16.3923 2.19243 15.9618 2.98233C14.4903 5.68245 13.654 8.77543 13.654 12.0668C13.654 22.6204 22.2608 31.1658 32.8654 31.1658C34.2472 31.1658 35.5935 31.021 36.8902 30.7463C37.7769 30.5585 38.5833 30.9593 39.0157 31.5751C39.4617 32.2105 39.5552 33.1585 38.9336 33.9214C34.9213 38.8461 28.7825 42 21.9019 42C9.80023 42 0 32.2517 0 20.2388C0 11.1977 5.54964 3.44391 13.4493 0.157731C14.362 -0.221947 15.2573 0.12887 15.7508 0.730548Z" fill="#8DC8DC"/>
<path d="M28.3351 8.26413C28.5081 7.74529 29.242 7.74529 29.4149 8.26414L30.4316 11.314C30.8847 12.6735 31.9515 13.7403 33.311 14.1935L36.3609 15.2101C36.8797 15.383 36.8797 16.1169 36.3609 16.2899L33.311 17.3065C31.9515 17.7597 30.8847 18.8265 30.4316 20.186L29.4149 23.2359C29.242 23.7547 28.5081 23.7547 28.3351 23.2359L27.3185 20.1859C26.8653 18.8265 25.7985 17.7597 24.4391 17.3065L21.3891 16.2899C20.8703 16.1169 20.8703 15.383 21.3891 15.2101L24.4391 14.1934C25.7985 13.7403 26.8653 12.6735 27.3185 11.314L28.3351 8.26413Z" fill="#8DC8DC"/>
<path d="M36.3901 0.25942C36.5054 -0.0864753 36.9947 -0.0864724 37.11 0.259423L37.7877 2.29268C38.0898 3.199 38.801 3.9102 39.7073 4.21231L41.7406 4.89006C42.0865 5.00536 42.0865 5.49462 41.7406 5.60992L39.7073 6.28768C38.801 6.58979 38.0898 7.30098 37.7877 8.20731L37.11 10.2406C36.9947 10.5865 36.5054 10.5865 36.3901 10.2406L35.7123 8.20729C35.4102 7.30097 34.699 6.58979 33.7927 6.28768L31.7594 5.60992C31.4135 5.49462 31.4135 5.00536 31.7594 4.89006L33.7927 4.2123C34.699 3.91019 35.4102 3.19901 35.7123 2.2927L36.3901 0.25942Z" fill="#8DC8DC"/>
</svg>
