<svg width="64" height="64" viewBox="0 0 64 64" fill="none" xmlns="http://www.w3.org/2000/svg">
<path d="M52.364 32.0004C52.364 43.2469 43.2469 52.364 32.0004 52.364C20.7538 52.364 11.6367 43.2469 11.6367 32.0004C11.6367 20.7538 20.7538 11.6367 32.0004 11.6367C43.2469 11.6367 52.364 20.7538 52.364 32.0004ZM32.0004 20.5458C32.0004 19.8429 31.4305 19.2731 30.7276 19.2731C30.0247 19.2731 29.4549 19.8429 29.4549 20.5458V34.5458C29.4549 35.0025 29.6996 35.4242 30.0962 35.6508L39.0053 40.7418C39.6156 41.0905 40.393 40.8785 40.7418 40.2682C41.0905 39.6579 40.8785 38.8804 40.2682 38.5317L32.0004 33.8072V20.5458Z" fill="#F7F7F7"/>
</svg>
