<svg width="64" height="64" viewBox="0 0 64 64" fill="none" xmlns="http://www.w3.org/2000/svg">
<path d="M32.0004 11.2285C43.4725 11.2285 52.7724 20.5284 52.7724 32.0004C52.7724 43.4725 43.4725 52.7724 32.0004 52.7724C20.5284 52.7724 11.2285 43.4725 11.2285 32.0004C11.2285 20.5284 20.5284 11.2285 32.0004 11.2285ZM22.9127 30.7022C22.1957 30.7022 21.6145 31.2834 21.6145 32.0004C21.6145 32.7174 22.1957 33.2987 22.9127 33.2987H37.9539L32.3807 38.8719C31.8737 39.3789 31.8737 40.2009 32.3807 40.7079C32.8877 41.2149 33.7097 41.2149 34.2167 40.7079L42.0062 32.9184C42.5132 32.4114 42.5132 31.5894 42.0062 31.0824L34.2167 23.293C33.7097 22.786 32.8877 22.786 32.3807 23.293C31.8737 23.8 31.8737 24.622 32.3807 25.129L37.9539 30.7022H22.9127Z" fill="#F7F7F7"/>
</svg>
