<svg width="64" height="64" viewBox="0 0 64 64" fill="none" xmlns="http://www.w3.org/2000/svg">
<path d="M31.9996 11.2285C20.5275 11.2285 11.2276 20.5284 11.2276 32.0004C11.2276 43.4725 20.5275 52.7724 31.9996 52.7724C43.4716 52.7724 52.7715 43.4725 52.7715 32.0004C52.7715 20.5284 43.4716 11.2285 31.9996 11.2285ZM41.0873 30.7022C41.8043 30.7022 42.3855 31.2834 42.3855 32.0004C42.3855 32.7174 41.8043 33.2987 41.0873 33.2987H26.0461L31.6193 38.8719C32.1263 39.3789 32.1263 40.2009 31.6193 40.7079C31.1123 41.2149 30.2903 41.2149 29.7833 40.7079L21.9938 32.9184C21.4868 32.4114 21.4868 31.5894 21.9938 31.0824L29.7833 23.293C30.2903 22.786 31.1123 22.786 31.6193 23.293C32.1263 23.8 32.1263 24.622 31.6193 25.129L26.0461 30.7022H41.0873Z" fill="#F7F7F7"/>
</svg>
