<svg width="64" height="64" viewBox="0 0 64 64" fill="none" xmlns="http://www.w3.org/2000/svg">
<g clip-path="url(#clip0_299_5774)">
<path d="M32.0007 11.0342C27.8541 11.0342 23.8006 12.2638 20.3529 14.5675C16.9051 16.8712 14.2179 20.1456 12.6311 23.9765C11.0442 27.8075 10.6291 32.023 11.438 36.0899C12.247 40.1568 14.2437 43.8925 17.1758 46.8246C20.1079 49.7566 23.8436 51.7534 27.9105 52.5624C31.9774 53.3713 36.1929 52.9561 40.0238 51.3693C43.8548 49.7825 47.1292 47.0953 49.4329 43.6475C51.7366 40.1998 52.9662 36.1463 52.9662 31.9997C52.9662 26.4393 50.7573 21.1066 46.8255 17.1748C42.8937 13.243 37.5611 11.0342 32.0007 11.0342V11.0342ZM40.2611 35.0637H34.9718V40.35C34.9718 41.138 34.6588 41.8937 34.1016 42.4509C33.5444 43.008 32.7887 43.3211 32.0007 43.3211C31.2127 43.3211 30.457 43.008 29.8998 42.4509C29.3426 41.8937 29.0296 41.138 29.0296 40.35V35.0637H23.7403C22.9682 35.0391 22.236 34.7152 21.6985 34.1604C21.1611 33.6056 20.8605 32.8635 20.8605 32.091C20.8605 31.3186 21.1611 30.5765 21.6985 30.0217C22.236 29.4669 22.9682 29.1429 23.7403 29.1184H29.0296V23.8321C29.0296 23.0441 29.3426 22.2884 29.8998 21.7312C30.457 21.174 31.2127 20.861 32.0007 20.861C32.7887 20.861 33.5444 21.174 34.1016 21.7312C34.6588 22.2884 34.9718 23.0441 34.9718 23.8321V29.1184H40.2611C41.0331 29.1429 41.7654 29.4669 42.3028 30.0217C42.8403 30.5765 43.1408 31.3186 43.1408 32.091C43.1408 32.8635 42.8403 33.6056 42.3028 34.1604C41.7654 34.7152 41.0331 35.0391 40.2611 35.0637Z" fill="#F7F7F7"/>
</g>
<defs>
<clipPath id="clip0_299_5774">
<rect width="41.931" height="41.931" fill="white" transform="translate(11.0352 11.0342)"/>
</clipPath>
</defs>
</svg>
