<svg width="64" height="64" viewBox="0 0 64 64" fill="none" xmlns="http://www.w3.org/2000/svg">
<g clip-path="url(#clip0_299_5781)">
<path fill-rule="evenodd" clip-rule="evenodd" d="M39.7073 15.7781C37.4778 13.5463 34.6713 11.9788 31.6018 11.2508C28.5323 10.5229 25.3208 10.6633 22.3265 11.6563C19.3323 12.6493 16.6733 14.4557 14.647 16.8735C12.6207 19.2913 11.307 22.2252 10.8529 25.347C10.3988 28.4688 10.8221 31.6553 12.0755 34.5503C13.3289 37.4452 15.363 39.9344 17.9503 41.7393C20.5375 43.5442 23.5759 44.5938 26.7256 44.7706C29.8753 44.9474 33.012 44.2445 35.785 42.7404L45.9732 52.4196C46.5046 52.9238 47.2118 53.2008 47.9442 53.1917C48.6767 53.1826 49.3768 52.8881 49.8955 52.3709L52.5103 49.756C53.0337 49.2295 53.3274 48.5174 53.3274 47.7751C53.3274 47.0327 53.0337 46.3206 52.5103 45.7941L42.6239 35.8893C44.3699 32.6705 45.0293 28.9736 44.5037 25.3496C43.9781 21.7256 42.2958 18.3684 39.7073 15.7781V15.7781ZM34.6574 34.7617C33.2796 36.1402 31.524 37.0791 29.6126 37.4597C27.7012 37.8402 25.7198 37.6454 23.9191 36.8998C22.1184 36.1542 20.5793 34.8913 19.4965 33.2709C18.4136 31.6505 17.8356 29.7453 17.8356 27.7964C17.8356 25.8474 18.4136 23.9423 19.4965 22.3219C20.5793 20.7014 22.1184 19.4386 23.9191 18.693C25.7198 17.9474 27.7012 17.7525 29.6126 18.1331C31.524 18.5137 33.2796 19.4526 34.6574 20.831C36.4996 22.6811 37.5339 25.1856 37.5339 27.7964C37.5339 30.4072 36.4996 32.9117 34.6574 34.7617Z" fill="#F7F7F7"/>
</g>
<defs>
<clipPath id="clip0_299_5781">
<rect width="42.6667" height="42.6667" fill="white" transform="translate(10.666 10.667)"/>
</clipPath>
</defs>
</svg>
