<svg width="64" height="64" viewBox="0 0 64 64" fill="none" xmlns="http://www.w3.org/2000/svg">
<g clip-path="url(#clip0_299_5795)">
<path fill-rule="evenodd" clip-rule="evenodd" d="M48.8188 28.9527L51.8237 27.3314C52.0483 27.2131 52.2471 27.0512 52.4083 26.8551C52.5695 26.659 52.69 26.4327 52.7627 26.1894C52.8353 25.9462 52.8587 25.6909 52.8314 25.4385C52.8042 25.1861 52.7268 24.9417 52.6039 24.7196L49.3277 18.8011C49.0765 18.35 48.6574 18.0163 48.1615 17.8725C47.6655 17.7287 47.1329 17.7864 46.6793 18.0331L43.6652 19.6636C43.1438 19.8956 42.5732 19.9955 42.0039 19.9546C41.4346 19.9137 40.8842 19.7331 40.4012 19.4289C39.9898 19.1638 39.5692 18.92 39.1487 18.6944C38.6462 18.4283 38.219 18.0396 37.9068 17.5644C37.5946 17.0892 37.4075 16.5428 37.3628 15.976V12.5962C37.362 12.3418 37.311 12.09 37.2128 11.8553C37.1146 11.6206 36.9711 11.4076 36.7906 11.2284C36.61 11.0493 36.3958 10.9074 36.1604 10.8111C35.9249 10.7148 35.6728 10.6658 35.4184 10.667H28.5856C28.0726 10.6662 27.5802 10.8688 27.2163 11.2304C26.8524 11.592 26.6467 12.0831 26.6443 12.5962V15.9882C26.5989 16.5533 26.4118 17.0978 26.1001 17.5714C25.7885 18.0449 25.3625 18.4323 24.8614 18.6975C24.5262 18.8773 24.1909 19.0693 23.8648 19.2735C23.3746 19.5676 22.8192 19.736 22.2482 19.7637C21.6771 19.7913 21.1081 19.6774 20.5917 19.432L18.2847 18.1306C17.8377 17.8748 17.3079 17.8052 16.81 17.937C16.3121 18.0687 15.8861 18.3912 15.6241 18.8346L12.2168 24.6861C12.0893 24.9051 12.0068 25.1474 11.9741 25.3988C11.9415 25.6501 11.9593 25.9055 12.0265 26.1499C12.0938 26.3942 12.2092 26.6227 12.3659 26.822C12.5226 27.0212 12.7175 27.1871 12.9391 27.3101L15.2431 28.6236C15.7164 28.9345 16.1025 29.3611 16.3649 29.863C16.6273 30.3648 16.7573 30.9253 16.7426 31.4914C16.7426 31.7383 16.7426 31.9729 16.7426 32.2167C16.7416 32.7825 16.5974 33.3388 16.3235 33.8339C16.0496 34.3289 15.6549 34.7466 15.1761 35.048L12.1894 36.6754C11.9648 36.7937 11.766 36.9556 11.6049 37.1518C11.4437 37.348 11.3234 37.5744 11.251 37.8177C11.1786 38.061 11.1555 38.3164 11.1832 38.5687C11.2109 38.8211 11.2888 39.0654 11.4123 39.2872L14.6702 45.1965C14.9214 45.6476 15.3405 45.9814 15.8364 46.1252C16.3323 46.269 16.865 46.2113 17.3186 45.9645L20.3448 44.3341C20.8637 44.0999 21.4327 43.9988 22.0005 44.0397C22.5682 44.0807 23.1168 44.2625 23.5967 44.5687C24.0081 44.8339 24.4287 45.0807 24.8614 45.3032C25.3624 45.5708 25.7882 45.96 26.0997 46.4349C26.4112 46.9099 26.5985 47.4555 26.6443 48.0217V51.4045C26.6475 51.9178 26.8539 52.4089 27.2183 52.7705C27.5826 53.132 28.0754 53.3345 28.5887 53.3337H35.4184C35.9322 53.3353 36.4257 53.1332 36.7907 52.7715C37.1558 52.4099 37.3626 51.9184 37.3658 51.4045V48.0095C37.4077 47.4439 37.5935 46.8983 37.9056 46.4247C38.2176 45.951 38.6455 45.565 39.1487 45.3032C39.4839 45.1203 39.8161 44.9283 40.1422 44.7272C40.633 44.433 41.1889 44.2647 41.7604 44.237C42.3319 44.2094 42.9015 44.3233 43.4184 44.5687L45.7193 45.867C46.1659 46.1227 46.6952 46.1922 47.1926 46.0604C47.69 45.9286 48.1155 45.6062 48.3768 45.163L51.781 39.3146C51.908 39.0953 51.99 38.8528 52.0223 38.6015C52.0545 38.3501 52.0363 38.0948 51.9688 37.8505C51.9013 37.6062 51.7858 37.3778 51.629 37.1787C51.4722 36.9795 51.2773 36.8136 51.0557 36.6906L48.7456 35.3802C48.277 35.0641 47.895 34.6359 47.6342 34.1345C47.3733 33.6331 47.2421 33.0744 47.2523 32.5093C47.2523 32.2655 47.2523 32.0217 47.2523 31.7748C47.2548 31.2106 47.3997 30.6562 47.6735 30.1628C47.9473 29.6695 48.3413 29.2533 48.8188 28.9527V28.9527ZM31.9989 39.5097C30.5177 39.4886 29.0758 39.0302 27.8544 38.1919C26.6331 37.3536 25.6868 36.1729 25.1346 34.7983C24.5825 33.4237 24.449 31.9165 24.7511 30.4663C25.0531 29.0161 25.7772 27.6875 26.8322 26.6476C27.8873 25.6078 29.2262 24.903 30.6807 24.6221C32.1352 24.3411 33.6402 24.4964 35.0067 25.0684C36.3731 25.6405 37.54 26.6038 38.3604 27.8372C39.1809 29.0706 39.6184 30.519 39.618 32.0003C39.6124 32.9942 39.4107 33.9771 39.0245 34.8928C38.6383 35.8085 38.0751 36.639 37.3673 37.3366C36.6595 38.0343 35.8209 38.5853 34.8997 38.9582C33.9785 39.3311 32.9927 39.5185 31.9989 39.5097V39.5097Z" fill="#F7F7F7"/>
</g>
<defs>
<clipPath id="clip0_299_5795">
<rect width="42.6667" height="42.6667" fill="white" transform="translate(10.666 10.667)"/>
</clipPath>
</defs>
</svg>
