<svg width="64" height="64" viewBox="0 0 64 64" fill="none" xmlns="http://www.w3.org/2000/svg">
<path d="M32.0007 50.6663C42.31 50.6663 50.6673 42.309 50.6673 31.9997C50.6673 21.6904 42.31 13.333 32.0007 13.333C21.6913 13.333 13.334 21.6904 13.334 31.9997C13.334 42.309 21.6913 50.6663 32.0007 50.6663Z" fill="#F7F7F7"/>
<path d="M31.9993 61.227C30.5327 61.227 29.3327 60.1337 29.3327 58.667V58.4537C29.3327 56.987 30.5327 55.787 31.9993 55.787C33.466 55.787 34.666 56.987 34.666 58.4537C34.666 59.9203 33.466 61.227 31.9993 61.227ZM51.0393 53.707C50.346 53.707 49.6794 53.4403 49.146 52.9337L48.7993 52.587C47.7593 51.547 47.7593 49.867 48.7993 48.827C49.8393 47.787 51.5193 47.787 52.5593 48.827L52.906 49.1737C53.946 50.2137 53.946 51.8937 52.906 52.9337C52.3994 53.4403 51.7327 53.707 51.0393 53.707ZM12.9593 53.707C12.266 53.707 11.5993 53.4403 11.066 52.9337C10.026 51.8937 10.026 50.2137 11.066 49.1737L11.4127 48.827C12.4527 47.787 14.1327 47.787 15.1727 48.827C16.2127 49.867 16.2127 51.547 15.1727 52.587L14.826 52.9337C14.3193 53.4403 13.626 53.707 12.9593 53.707ZM58.666 34.667H58.4527C56.986 34.667 55.786 33.467 55.786 32.0003C55.786 30.5337 56.986 29.3337 58.4527 29.3337C59.9194 29.3337 61.226 30.5337 61.226 32.0003C61.226 33.467 60.1327 34.667 58.666 34.667ZM5.54602 34.667H5.33268C3.86602 34.667 2.66602 33.467 2.66602 32.0003C2.66602 30.5337 3.86602 29.3337 5.33268 29.3337C6.79935 29.3337 8.10602 30.5337 8.10602 32.0003C8.10602 33.467 7.01268 34.667 5.54602 34.667ZM50.6927 15.9737C49.9994 15.9737 49.3327 15.707 48.7993 15.2003C47.7593 14.1603 47.7593 12.4803 48.7993 11.4403L49.146 11.0937C50.186 10.0537 51.866 10.0537 52.906 11.0937C53.946 12.1337 53.946 13.8137 52.906 14.8537L52.5593 15.2003C52.0527 15.707 51.386 15.9737 50.6927 15.9737ZM13.306 15.9737C12.6127 15.9737 11.946 15.707 11.4127 15.2003L11.066 14.827C10.026 13.787 10.026 12.107 11.066 11.067C12.106 10.027 13.786 10.027 14.826 11.067L15.1727 11.4137C16.2127 12.4537 16.2127 14.1337 15.1727 15.1737C14.666 15.707 13.9727 15.9737 13.306 15.9737ZM31.9993 8.10699C30.5327 8.10699 29.3327 7.01366 29.3327 5.54699V5.33366C29.3327 3.86699 30.5327 2.66699 31.9993 2.66699C33.466 2.66699 34.666 3.86699 34.666 5.33366C34.666 6.80033 33.466 8.10699 31.9993 8.10699Z" fill="#F7F7F7"/>
</svg>
